<svg width="116" height="127" viewBox="0 0 116 127" fill="none" xmlns="http://www.w3.org/2000/svg">
<path d="M98.4242 49.3889C96.5597 49.3889 94.7715 48.6455 93.4531 47.3224C92.1346 45.9992 91.3939 44.2046 91.3939 42.3333C91.3939 40.4621 92.1346 38.6675 93.4531 37.3443C94.7715 36.0211 96.5597 35.2778 98.4242 35.2778C100.289 35.2778 102.077 36.0211 103.395 37.3443C104.714 38.6675 105.455 40.4621 105.455 42.3333C105.455 44.2046 104.714 45.9992 103.395 47.3224C102.077 48.6455 100.289 49.3889 98.4242 49.3889ZM56.2424 49.3889H14.0606V14.1111H56.2424M110.868 29.845L110.938 29.7744L84.7855 3.52778L77.3333 11.0067L92.1673 25.8939C85.5588 28.2222 80.8485 34.7839 80.8485 42.3333C80.8485 44.6497 81.3031 46.9434 82.1864 49.0834C83.0696 51.2235 84.3642 53.168 85.9963 54.8059C89.2924 58.1138 93.7629 59.9722 98.4242 59.9722C100.955 59.9722 103.275 59.4078 105.455 58.4906V109.361C105.455 111.232 104.714 113.027 103.395 114.35C102.077 115.673 100.289 116.417 98.4242 116.417C96.5597 116.417 94.7715 115.673 93.4531 114.35C92.1346 113.027 91.3939 111.232 91.3939 109.361V77.6111C91.3939 69.7794 85.0667 63.5 77.3333 63.5H70.303V14.1111C70.303 6.27944 63.9758 0 56.2424 0H14.0606C6.25697 0 0 6.27944 0 14.1111V127H70.303V74.0833H80.8485V109.361C80.8485 114.039 82.7002 118.526 85.9963 121.834C89.2924 125.142 93.7629 127 98.4242 127C100.732 127 103.018 126.544 105.15 125.657C107.283 124.771 109.22 123.472 110.852 121.834C112.484 120.196 113.779 118.251 114.662 116.111C115.545 113.971 116 111.677 116 109.361V42.3333C116 37.465 114.032 33.02 110.868 29.845Z" fill="#2676FF"/>
</svg>
