<svg width="86" height="86" viewBox="0 0 86 86" fill="none" xmlns="http://www.w3.org/2000/svg">
<rect width="86" height="86" rx="15" fill="#2676FF"/>
<path d="M20.3333 46.4685L25.0833 32.2793H59.9167L64.6667 46.4685M59.9167 62.2342C58.6569 62.2342 57.4487 61.7359 56.5579 60.8489C55.6671 59.9619 55.1667 58.7589 55.1667 57.5045C55.1667 56.2501 55.6671 55.0471 56.5579 54.1601C57.4487 53.2731 58.6569 52.7748 59.9167 52.7748C61.1764 52.7748 62.3846 53.2731 63.2754 54.1601C64.1662 55.0471 64.6667 56.2501 64.6667 57.5045C64.6667 58.7589 64.1662 59.9619 63.2754 60.8489C62.3846 61.7359 61.1764 62.2342 59.9167 62.2342ZM25.0833 62.2342C23.8236 62.2342 22.6154 61.7359 21.7246 60.8489C20.8338 59.9619 20.3333 58.7589 20.3333 57.5045C20.3333 56.2501 20.8338 55.0471 21.7246 54.1601C22.6154 53.2731 23.8236 52.7748 25.0833 52.7748C26.3431 52.7748 27.5513 53.2731 28.4421 54.1601C29.3329 55.0471 29.8333 56.2501 29.8333 57.5045C29.8333 58.7589 29.3329 59.9619 28.4421 60.8489C27.5513 61.7359 26.3431 62.2342 25.0833 62.2342ZM64.4133 30.7027C63.78 28.8739 62.0067 27.5495 59.9167 27.5495H25.0833C22.9933 27.5495 21.22 28.8739 20.5867 30.7027L14 49.6216V74.8468C14 75.6831 14.3336 76.4851 14.9275 77.0765C15.5214 77.6678 16.3268 78 17.1667 78H20.3333C21.1732 78 21.9786 77.6678 22.5725 77.0765C23.1664 76.4851 23.5 75.6831 23.5 74.8468V71.6937H61.5V74.8468C61.5 75.6831 61.8336 76.4851 62.4275 77.0765C63.0214 77.6678 63.8268 78 64.6667 78H67.8333C68.6732 78 69.4786 77.6678 70.0725 77.0765C70.6664 76.4851 71 75.6831 71 74.8468V49.6216M26.6667 21.2432C27.9264 21.2432 29.1346 20.7449 30.0254 19.8579C30.9162 18.9709 31.4167 17.7679 31.4167 16.5135C31.4167 13.3604 26.6667 8 26.6667 8C26.6667 8 21.9167 13.3604 21.9167 16.5135C21.9167 17.7679 22.4171 18.9709 23.3079 19.8579C24.1987 20.7449 25.4069 21.2432 26.6667 21.2432ZM42.5 21.2432C43.7598 21.2432 44.968 20.7449 45.8588 19.8579C46.7496 18.9709 47.25 17.7679 47.25 16.5135C47.25 13.3604 42.5 8 42.5 8C42.5 8 37.75 13.3604 37.75 16.5135C37.75 17.7679 38.2504 18.9709 39.1412 19.8579C40.032 20.7449 41.2402 21.2432 42.5 21.2432ZM58.3333 21.2432C59.5931 21.2432 60.8013 20.7449 61.6921 19.8579C62.5829 18.9709 63.0833 17.7679 63.0833 16.5135C63.0833 13.3604 58.3333 8 58.3333 8C58.3333 8 53.5833 13.3604 53.5833 16.5135C53.5833 17.7679 54.0838 18.9709 54.9746 19.8579C55.8654 20.7449 57.0736 21.2432 58.3333 21.2432Z" fill="white"/>
</svg>
