<svg width="158" height="127" viewBox="0 0 158 127" fill="none" xmlns="http://www.w3.org/2000/svg">
<path d="M142.2 0H15.8C11.6096 0 7.59079 1.67254 4.62771 4.64968C1.66464 7.62682 0 11.6647 0 15.875V111.125C0 115.335 1.66464 119.373 4.62771 122.35C7.59079 125.327 11.6096 127 15.8 127H142.2C146.39 127 150.409 125.327 153.372 122.35C156.335 119.373 158 115.335 158 111.125V15.875C158 11.6647 156.335 7.62682 153.372 4.64968C150.409 1.67254 146.39 0 142.2 0ZM142.2 55.5625H15.8V31.75H142.2V55.5625Z" fill="#2676FF"/>
</svg>
