<svg width="86" height="86" viewBox="0 0 86 86" fill="none" xmlns="http://www.w3.org/2000/svg">
<rect width="86" height="86" rx="15" fill="#2676FF"/>
<path d="M62.2818 78H67.5636C70.2364 78 72.4318 75.9318 72.75 73.3227L78 20.8864H62.0909V8H55.8227V20.8864H40.0091L40.9636 28.3318C46.4045 29.8273 51.4955 32.5318 54.55 35.5227C59.1318 40.0409 62.2818 44.7182 62.2818 52.3545V78ZM8 74.8182V71.6364H55.8227V74.8182C55.8227 76.5364 54.3909 78 52.5455 78H11.1818C9.43182 78 8 76.5364 8 74.8182ZM55.8227 52.5455C55.8227 27.0909 8 27.0909 8 52.5455H55.8227ZM8 58.9091H55.7273V65.2727H8V58.9091Z" fill="white"/>
</svg>
