<svg width="103" height="127" viewBox="0 0 103 127" fill="none" xmlns="http://www.w3.org/2000/svg">
<path d="M11.4444 69.7928L20.0278 44.0495H82.9722L91.5556 69.7928M82.9722 98.3964C80.6958 98.3964 78.5126 97.4923 76.9029 95.883C75.2932 94.2738 74.3889 92.0911 74.3889 89.8153C74.3889 87.5395 75.2932 85.3568 76.9029 83.7476C78.5126 82.1383 80.6958 81.2342 82.9722 81.2342C85.2487 81.2342 87.4319 82.1383 89.0415 83.7476C90.6512 85.3568 91.5556 87.5395 91.5556 89.8153C91.5556 92.0911 90.6512 94.2738 89.0415 95.883C87.4319 97.4923 85.2487 98.3964 82.9722 98.3964ZM20.0278 98.3964C17.7513 98.3964 15.5681 97.4923 13.9584 95.883C12.3488 94.2738 11.4444 92.0911 11.4444 89.8153C11.4444 87.5395 12.3488 85.3568 13.9584 83.7476C15.5681 82.1383 17.7513 81.2342 20.0278 81.2342C22.3042 81.2342 24.4874 82.1383 26.0971 83.7476C27.7068 85.3568 28.6111 87.5395 28.6111 89.8153C28.6111 92.0911 27.7068 94.2738 26.0971 95.883C24.4874 97.4923 22.3042 98.3964 20.0278 98.3964ZM91.0978 41.1892C89.9533 37.8712 86.7489 35.4685 82.9722 35.4685H20.0278C16.2511 35.4685 13.0467 37.8712 11.9022 41.1892L0 75.5135V121.279C0 122.797 0.602875 124.252 1.676 125.324C2.74912 126.397 4.20459 127 5.72222 127H11.4444C12.9621 127 14.4175 126.397 15.4907 125.324C16.5638 124.252 17.1667 122.797 17.1667 121.279V115.559H85.8333V121.279C85.8333 122.797 86.4362 124.252 87.5093 125.324C88.5825 126.397 90.0379 127 91.5556 127H97.2778C98.7954 127 100.251 126.397 101.324 125.324C102.397 124.252 103 122.797 103 121.279V75.5135M22.8889 24.027C25.1653 24.027 27.3485 23.123 28.9582 21.5137C30.5679 19.9044 31.4722 17.7218 31.4722 15.4459C31.4722 9.72522 22.8889 0 22.8889 0C22.8889 0 14.3056 9.72522 14.3056 15.4459C14.3056 17.7218 15.2099 19.9044 16.8196 21.5137C18.4292 23.123 20.6124 24.027 22.8889 24.027ZM51.5 24.027C53.7764 24.027 55.9596 23.123 57.5693 21.5137C59.179 19.9044 60.0833 17.7218 60.0833 15.4459C60.0833 9.72522 51.5 0 51.5 0C51.5 0 42.9167 9.72522 42.9167 15.4459C42.9167 17.7218 43.821 19.9044 45.4307 21.5137C47.0404 23.123 49.2236 24.027 51.5 24.027ZM80.1111 24.027C82.3876 24.027 84.5708 23.123 86.1804 21.5137C87.7901 19.9044 88.6944 17.7218 88.6944 15.4459C88.6944 9.72522 80.1111 0 80.1111 0C80.1111 0 71.5278 9.72522 71.5278 15.4459C71.5278 17.7218 72.4321 19.9044 74.0418 21.5137C75.6515 23.123 77.8347 24.027 80.1111 24.027Z" fill="#2676FF"/>
</svg>
