<svg width="104" height="127" viewBox="0 0 104 127" fill="none" xmlns="http://www.w3.org/2000/svg">
<path d="M65.9822 37.5227L75.1111 57.7273H28.8889L37.0933 37.5227H65.9822ZM34.6667 63.5C31.4889 63.5 28.8889 66.0977 28.8889 69.2727C28.8889 72.4477 31.4889 75.0455 34.6667 75.0455C37.8444 75.0455 40.4444 72.4477 40.4444 69.2727C40.4444 66.0977 37.8444 63.5 34.6667 63.5ZM69.3333 63.5C66.1556 63.5 63.5556 66.0977 63.5556 69.2727C63.5556 72.4477 66.1556 75.0455 69.3333 75.0455C72.5111 75.0455 75.1111 72.4477 75.1111 69.2727C75.1111 66.0977 72.5111 63.5 69.3333 63.5ZM104 23.0909V57.7273C104 89.7659 81.8133 119.726 52 127C22.1867 119.726 0 89.7659 0 57.7273V23.0909L52 0L104 23.0909ZM86.6667 63.5L74.1867 34.6364C73.0311 31.2882 69.7956 28.8636 65.9822 28.8636H37.0933C33.28 28.8636 30.0444 31.2882 28.8889 34.6364L17.3333 63.5V86.5909C17.3333 89.7659 19.9333 92.3636 23.1111 92.3636H28.8889C32.0667 92.3636 34.6667 89.7659 34.6667 86.5909V80.8182H69.3333V86.5909C69.3333 89.7659 71.9333 92.3636 75.1111 92.3636H80.8889C84.0667 92.3636 86.6667 89.7659 86.6667 86.5909V63.5Z" fill="#2676FF"/>
</svg>
