<svg width="127" height="127" viewBox="0 0 127 127" fill="none" xmlns="http://www.w3.org/2000/svg">
<path d="M112.059 0L0 112.059L14.9412 127L127 14.9412M26.1471 3.73529C20.2031 3.73529 14.5026 6.09653 10.2995 10.2995C6.09653 14.5026 3.73529 20.2031 3.73529 26.1471C3.73529 32.091 6.09653 37.7915 10.2995 41.9946C14.5026 46.1976 20.2031 48.5588 26.1471 48.5588C32.091 48.5588 37.7915 46.1976 41.9946 41.9946C46.1976 37.7915 48.5588 32.091 48.5588 26.1471C48.5588 20.2031 46.1976 14.5026 41.9946 10.2995C37.7915 6.09653 32.091 3.73529 26.1471 3.73529ZM100.853 78.4412C94.909 78.4412 89.2085 80.8024 85.0054 85.0054C80.8024 89.2085 78.4412 94.909 78.4412 100.853C78.4412 106.797 80.8024 112.497 85.0054 116.7C89.2085 120.903 94.909 123.265 100.853 123.265C106.797 123.265 112.497 120.903 116.7 116.7C120.903 112.497 123.265 106.797 123.265 100.853C123.265 94.909 120.903 89.2085 116.7 85.0054C112.497 80.8024 106.797 78.4412 100.853 78.4412Z" fill="#2676FF"/>
</svg>
