<svg width="127" height="127" viewBox="0 0 127 127" fill="none" xmlns="http://www.w3.org/2000/svg">
<path d="M25.4 57.15C39.4494 57.15 50.8 68.5006 50.8 82.55C50.8 96.5994 39.4494 107.95 25.4 107.95C11.3506 107.95 0 96.5994 0 82.55C0 68.5006 11.3506 57.15 25.4 57.15ZM85.725 95.25C89.9353 95.25 93.9732 96.9225 96.9503 99.8997C99.9275 102.877 101.6 106.915 101.6 111.125C101.6 115.335 99.9275 119.373 96.9503 122.35C93.9732 125.327 89.9353 127 85.725 127C81.5147 127 77.4768 125.327 74.4997 122.35C71.5225 119.373 69.85 115.335 69.85 111.125C69.85 106.915 71.5225 102.877 74.4997 99.8997C77.4768 96.9225 81.5147 95.25 85.725 95.25ZM88.9 0C93.9034 0 98.8577 0.985487 103.48 2.90019C108.103 4.8149 112.303 7.62132 115.841 11.1592C119.379 14.6971 122.185 18.8973 124.1 23.5198C126.015 28.1423 127 33.0966 127 38.1C127 59.1344 109.934 76.2 88.9 76.2C78.7952 76.2 69.1044 72.1859 61.9592 65.0408C54.8141 57.8956 50.8 48.2048 50.8 38.1C50.8 17.0656 67.8656 0 88.9 0Z" fill="#2676FF"/>
</svg>
