<svg width="86" height="86" viewBox="0 0 86 86" fill="none" xmlns="http://www.w3.org/2000/svg">
<rect width="86" height="86" rx="15" fill="#2676FF"/>
<path d="M42.9998 75.25L55.8998 58.05C52.3165 55.3625 47.8373 53.75 42.9998 53.75C38.1623 53.75 33.6831 55.3625 30.0998 58.05L42.9998 75.25ZM42.9998 10.75C28.4873 10.75 15.0856 15.5517 4.2998 23.65L10.7498 32.25C19.7081 25.5133 30.8881 21.5 42.9998 21.5C55.1115 21.5 66.2915 25.5133 75.2498 32.25L81.6998 23.65C70.914 15.5517 57.5123 10.75 42.9998 10.75ZM42.9998 32.25C33.3248 32.25 24.4023 35.4392 17.1998 40.85L23.6498 49.45C29.0248 45.4008 35.7256 43 42.9998 43C50.274 43 56.9748 45.4008 62.3498 49.45L68.7998 40.85C61.5973 35.4392 52.6748 32.25 42.9998 32.25Z" fill="white"/>
</svg>
